<?xml version="1.0" encoding="UTF-8" standalone="no"?>
<!-- Created with Inkscape (http://www.inkscape.org/) -->

<svg
   xmlns:dc="http://purl.org/dc/elements/1.1/"
   xmlns:cc="http://creativecommons.org/ns#"
   xmlns:rdf="http://www.w3.org/1999/02/22-rdf-syntax-ns#"
   xmlns:svg="http://www.w3.org/2000/svg"
   xmlns="http://www.w3.org/2000/svg"
   xmlns:sodipodi="http://sodipodi.sourceforge.net/DTD/sodipodi-0.dtd"
   xmlns:inkscape="http://www.inkscape.org/namespaces/inkscape"
   width="417.19302"
   height="365.67523"
   id="svg2"
   version="1.1"
   inkscape:version="0.47 r22583"
   sodipodi:docname="fond.svg">
  <defs
     id="defs4">
    <inkscape:perspective
       sodipodi:type="inkscape:persp3d"
       inkscape:vp_x="0 : 526.18109 : 1"
       inkscape:vp_y="0 : 1000 : 0"
       inkscape:vp_z="744.09448 : 526.18109 : 1"
       inkscape:persp3d-origin="372.04724 : 350.78739 : 1"
       id="perspective10" />
    <inkscape:perspective
       id="perspective2858"
       inkscape:persp3d-origin="0.5 : 0.33333333 : 1"
       inkscape:vp_z="1 : 0.5 : 1"
       inkscape:vp_y="0 : 1000 : 0"
       inkscape:vp_x="0 : 0.5 : 1"
       sodipodi:type="inkscape:persp3d" />
    <inkscape:perspective
       id="perspective2858-2"
       inkscape:persp3d-origin="0.5 : 0.33333333 : 1"
       inkscape:vp_z="1 : 0.5 : 1"
       inkscape:vp_y="0 : 1000 : 0"
       inkscape:vp_x="0 : 0.5 : 1"
       sodipodi:type="inkscape:persp3d" />
    <inkscape:perspective
       id="perspective2928"
       inkscape:persp3d-origin="0.5 : 0.33333333 : 1"
       inkscape:vp_z="1 : 0.5 : 1"
       inkscape:vp_y="0 : 1000 : 0"
       inkscape:vp_x="0 : 0.5 : 1"
       sodipodi:type="inkscape:persp3d" />
    <inkscape:perspective
       id="perspective2928-4"
       inkscape:persp3d-origin="0.5 : 0.33333333 : 1"
       inkscape:vp_z="1 : 0.5 : 1"
       inkscape:vp_y="0 : 1000 : 0"
       inkscape:vp_x="0 : 0.5 : 1"
       sodipodi:type="inkscape:persp3d" />
    <inkscape:perspective
       id="perspective2928-5"
       inkscape:persp3d-origin="0.5 : 0.33333333 : 1"
       inkscape:vp_z="1 : 0.5 : 1"
       inkscape:vp_y="0 : 1000 : 0"
       inkscape:vp_x="0 : 0.5 : 1"
       sodipodi:type="inkscape:persp3d" />
    <inkscape:perspective
       id="perspective2928-6"
       inkscape:persp3d-origin="0.5 : 0.33333333 : 1"
       inkscape:vp_z="1 : 0.5 : 1"
       inkscape:vp_y="0 : 1000 : 0"
       inkscape:vp_x="0 : 0.5 : 1"
       sodipodi:type="inkscape:persp3d" />
    <inkscape:perspective
       id="perspective2928-2"
       inkscape:persp3d-origin="0.5 : 0.33333333 : 1"
       inkscape:vp_z="1 : 0.5 : 1"
       inkscape:vp_y="0 : 1000 : 0"
       inkscape:vp_x="0 : 0.5 : 1"
       sodipodi:type="inkscape:persp3d" />
    <inkscape:perspective
       id="perspective2928-64"
       inkscape:persp3d-origin="0.5 : 0.33333333 : 1"
       inkscape:vp_z="1 : 0.5 : 1"
       inkscape:vp_y="0 : 1000 : 0"
       inkscape:vp_x="0 : 0.5 : 1"
       sodipodi:type="inkscape:persp3d" />
    <inkscape:perspective
       id="perspective2928-0"
       inkscape:persp3d-origin="0.5 : 0.33333333 : 1"
       inkscape:vp_z="1 : 0.5 : 1"
       inkscape:vp_y="0 : 1000 : 0"
       inkscape:vp_x="0 : 0.5 : 1"
       sodipodi:type="inkscape:persp3d" />
    <inkscape:perspective
       id="perspective2928-02"
       inkscape:persp3d-origin="0.5 : 0.33333333 : 1"
       inkscape:vp_z="1 : 0.5 : 1"
       inkscape:vp_y="0 : 1000 : 0"
       inkscape:vp_x="0 : 0.5 : 1"
       sodipodi:type="inkscape:persp3d" />
  </defs>
  <sodipodi:namedview
     id="base"
     pagecolor="#ffffff"
     bordercolor="#666666"
     borderopacity="1.0"
     inkscape:pageopacity="0.0"
     inkscape:pageshadow="2"
     inkscape:zoom="0.98994949"
     inkscape:cx="143.71457"
     inkscape:cy="208.74295"
     inkscape:document-units="px"
     inkscape:current-layer="layer1"
     showgrid="false"
     inkscape:snap-object-midpoints="false"
     inkscape:window-width="1280"
     inkscape:window-height="725"
     inkscape:window-x="0"
     inkscape:window-y="24"
     inkscape:window-maximized="1" />
  <metadata
     id="metadata7">
    <rdf:RDF>
      <cc:Work
         rdf:about="">
        <dc:format>image/svg+xml</dc:format>
        <dc:type
           rdf:resource="http://purl.org/dc/dcmitype/StillImage" />
        <dc:title></dc:title>
      </cc:Work>
    </rdf:RDF>
  </metadata>
  <g
     inkscape:label="Calque 1"
     inkscape:groupmode="layer"
     id="layer1"
     transform="translate(-227.28432,-234.13862)">
    <path
       style="fill:#ffb380;fill-opacity:1;stroke:#ff9955;stroke-width:8;stroke-linecap:butt;stroke-linejoin:miter;stroke-miterlimit:4;stroke-opacity:1;stroke-dasharray:none"
       d="M 381.83766,385.6615 364.66507,280.60563"
       id="path3011" />
    <path
       style="fill:none;stroke:#ff9955;stroke-width:8;stroke-linecap:butt;stroke-linejoin:miter;stroke-miterlimit:4;stroke-opacity:1;stroke-dasharray:none"
       d="M 512.14734,285.6564 488.91383,388.69196"
       id="path3787" />
    <path
       style="fill:none;stroke:#ff9955;stroke-width:8;stroke-linecap:butt;stroke-linejoin:miter;stroke-miterlimit:4;stroke-opacity:1;stroke-dasharray:none"
       d="m 584.87833,425.05745 -95.9645,-36.36549"
       id="path3789" />
    <path
       style="fill:none;stroke:#ff9955;stroke-width:8;stroke-linecap:butt;stroke-linejoin:miter;stroke-miterlimit:4;stroke-opacity:1;stroke-dasharray:none"
       d="M 515.1778,552.33667 436.3859,477.58538"
       id="path3791" />
    <path
       style="fill:none;stroke:#ff9955;stroke-width:8;stroke-linecap:butt;stroke-linejoin:miter;stroke-miterlimit:4;stroke-opacity:1;stroke-dasharray:none"
       d="m 356.58385,554.35698 79.80205,-76.7716"
       id="path3793" />
    <path
       style="fill:none;stroke:#ff9955;stroke-width:8;stroke-linecap:butt;stroke-linejoin:miter;stroke-miterlimit:4;stroke-opacity:1;stroke-dasharray:none"
       d="m 280.8224,416.97623 101.01526,-31.31473 54.54824,91.92388 52.52793,-88.89342"
       id="path3795" />
    <path
       style="fill:none;stroke:#ff9955;stroke-width:8;stroke-linecap:butt;stroke-linejoin:miter;stroke-miterlimit:4;stroke-opacity:1;stroke-dasharray:none"
       d="m 385.87827,385.6615 103.03556,3.03046"
       id="path3797" />
    <path
       style="fill:none;stroke:#ff9955;stroke-width:8;stroke-linecap:butt;stroke-linejoin:miter;stroke-miterlimit:4;stroke-opacity:1;stroke-dasharray:none"
       d="M 281.83256,417.98638 359.6143,555.36713"
       id="path3799" />
    <path
       style="fill:none;stroke:#ff9955;stroke-width:8;stroke-linecap:butt;stroke-linejoin:miter;stroke-miterlimit:4;stroke-opacity:1;stroke-dasharray:none"
       d="m 359.6143,555.36713 155.5635,-3.03046 69.70053,-127.27922"
       id="path3801" />
    <path
       style="fill:none;stroke:#ff9955;stroke-width:8;stroke-linecap:butt;stroke-linejoin:miter;stroke-miterlimit:4;stroke-opacity:1;stroke-dasharray:none"
       d="M 584.87833,425.05745 512.14734,285.6564 361.63461,280.60564"
       id="path3803" />
    <path
       style="fill:none;stroke:#ff9955;stroke-width:8;stroke-linecap:butt;stroke-linejoin:miter;stroke-miterlimit:4;stroke-opacity:1;stroke-dasharray:none"
       d="M 364.66507,280.60563 280.8224,416.97623"
       id="path3805" />
    <path
       sodipodi:type="arc"
       style="fill:#ff9955"
       id="peripheral12"
       sodipodi:cx="254.55844"
       sodipodi:cy="326.0625"
       sodipodi:rx="46.467018"
       sodipodi:ry="44.446712"
       d="m 301.02546,326.0625 c 0,24.54724 -20.80399,44.44671 -46.46702,44.44671 -25.66302,0 -46.46702,-19.89947 -46.46702,-44.44671 0,-24.54724 20.804,-44.44671 46.46702,-44.44671 25.66303,0 46.46702,19.89947 46.46702,44.44671 z"
       transform="translate(108.59139,-47.477172)"
       inkscape:label="#path2905" />
    <path
       sodipodi:type="arc"
       style="fill:#ff9955"
       id="center1"
       sodipodi:cx="254.55844"
       sodipodi:cy="326.0625"
       sodipodi:rx="46.467018"
       sodipodi:ry="44.446712"
       d="m 301.02546,326.0625 c 0,24.54724 -20.80399,44.44671 -46.46702,44.44671 -25.66302,0 -46.46702,-19.89947 -46.46702,-44.44671 0,-24.54724 20.804,-44.44671 46.46702,-44.44671 25.66303,0 46.46702,19.89947 46.46702,44.44671 z"
       transform="translate(127.27922,59.599003)"
       inkscape:label="#path2905-0" />
    <path
       sodipodi:type="arc"
       style="fill:#ff9955"
       id="center2"
       sodipodi:cx="254.55844"
       sodipodi:cy="326.0625"
       sodipodi:rx="46.467018"
       sodipodi:ry="44.446712"
       d="m 301.02546,326.0625 c 0,24.54724 -20.80399,44.44671 -46.46702,44.44671 -25.66302,0 -46.46702,-19.89947 -46.46702,-44.44671 0,-24.54724 20.804,-44.44671 46.46702,-44.44671 25.66303,0 46.46702,19.89947 46.46702,44.44671 z"
       transform="translate(234.35539,62.62946)"
       inkscape:label="#path2905-08" />
    <path
       sodipodi:type="arc"
       style="fill:#ff9955"
       id="peripheral11"
       sodipodi:cx="254.55844"
       sodipodi:cy="326.0625"
       sodipodi:rx="46.467018"
       sodipodi:ry="44.446712"
       d="m 301.02546,326.0625 c 0,24.54724 -20.80399,44.44671 -46.46702,44.44671 -25.66302,0 -46.46702,-19.89947 -46.46702,-44.44671 0,-24.54724 20.804,-44.44671 46.46702,-44.44671 25.66303,0 46.46702,19.89947 46.46702,44.44671 z"
       transform="translate(19.192895,90.913732)"
       inkscape:label="#path2905-1" />
    <path
       sodipodi:type="arc"
       style="fill:#ff9955"
       id="center3"
       sodipodi:cx="254.55844"
       sodipodi:cy="326.0625"
       sodipodi:rx="46.467018"
       sodipodi:ry="44.446712"
       d="m 301.02546,326.0625 c 0,24.54724 -20.80399,44.44671 -46.46702,44.44671 -25.66302,0 -46.46702,-19.89947 -46.46702,-44.44671 0,-24.54724 20.804,-44.44671 46.46702,-44.44671 25.66303,0 46.46702,19.89947 46.46702,44.44671 z"
       transform="translate(181.82746,151.52288)"
       inkscape:label="#path2905-6" />
    <path
       sodipodi:type="arc"
       style="fill:#ff9955"
       id="peripheral32"
       sodipodi:cx="254.55844"
       sodipodi:cy="326.0625"
       sodipodi:rx="46.467018"
       sodipodi:ry="44.446712"
       d="m 301.02546,326.0625 c 0,24.54724 -20.80399,44.44671 -46.46702,44.44671 -25.66302,0 -46.46702,-19.89947 -46.46702,-44.44671 0,-24.54724 20.804,-44.44671 46.46702,-44.44671 25.66303,0 46.46702,19.89947 46.46702,44.44671 z"
       transform="translate(105.05586,229.30463)"
       inkscape:label="#path2905-19" />
    <path
       sodipodi:type="arc"
       style="fill:#ff9955"
       id="peripheral31"
       sodipodi:cx="254.55844"
       sodipodi:cy="326.0625"
       sodipodi:rx="46.467018"
       sodipodi:ry="44.446712"
       d="m 301.02546,326.0625 c 0,24.54724 -20.80399,44.44671 -46.46702,44.44671 -25.66302,0 -46.46702,-19.89947 -46.46702,-44.44671 0,-24.54724 20.804,-44.44671 46.46702,-44.44671 25.66303,0 46.46702,19.89947 46.46702,44.44671 z"
       transform="translate(269.71073,227.28432)"
       inkscape:label="#path2905-8" />
    <path
       sodipodi:type="arc"
       style="fill:#ff9955"
       id="peripheral22"
       sodipodi:cx="254.55844"
       sodipodi:cy="326.0625"
       sodipodi:rx="46.467018"
       sodipodi:ry="44.446712"
       d="m 301.02546,326.0625 c 0,24.54724 -20.80399,44.44671 -46.46702,44.44671 -25.66302,0 -46.46702,-19.89947 -46.46702,-44.44671 0,-24.54724 20.804,-44.44671 46.46702,-44.44671 25.66303,0 46.46702,19.89947 46.46702,44.44671 z"
       transform="translate(343.45187,98.994955)"
       inkscape:label="#path2905-81" />
    <path
       sodipodi:type="arc"
       style="fill:#ff9955"
       id="peripheral21"
       sodipodi:cx="254.55844"
       sodipodi:cy="326.0625"
       sodipodi:rx="46.467018"
       sodipodi:ry="44.446712"
       d="m 301.02546,326.0625 c 0,24.54724 -20.80399,44.44671 -46.46702,44.44671 -25.66302,0 -46.46702,-19.89947 -46.46702,-44.44671 0,-24.54724 20.804,-44.44671 46.46702,-44.44671 25.66303,0 46.46702,19.89947 46.46702,44.44671 z"
       transform="translate(264.65997,-46.467014)"
       inkscape:label="#path2905-2" />
  </g>
</svg>
